 http://img.photosex.biz/imager/w_500/h_500/7f70c054bc04061b493e55f0c3cead4d.jpg

Country.......: USA
Genre.........: Fetish, Hardcore
Date release..: 01.12.2005 [World]
Producer......: Max Hardcore Euro
Duration......: 107 min.
More..........: http://kporn.com/69387_ExtremeSchoolgirls13EuroVersion.html

Pilot :
Young learned to live with only one and do it up very sharply pointed. Such a hard material available, if you like the genre download boldly, tasty:]

Cats :
Katie, Sierra, Layla, Laura

Data Technical :
!!! SAMPLE !!!
Audio.....: English
Subtitles.: None
Format : AVI
Format/Info : Audio Video Interleave
Format profile : OpenDML
File size : 1.28 GiB
Duration : 27mn 41s
Overall bit rate : 6 629 Kbps
Writing application : Lavf51.12.1
Video
ID : 0
Format : MPEG-4 Visual
Format profile : Simple@L1
Format settings, BVOP : No
Format settings, QPel : No
Format settings, GMC : No warppoints
Format settings, Matrix : Default (H.263)
Codec ID : DX50
Codec ID/Hint : DivX 5
Duration : 27mn 41s
Bit rate : 1 498 Kbps
Width : 720 pixels
Height : 480 pixels
Display aspect ratio : 3:2
Frame rate : 29.970 fps
Standard : NTSC
Color space : YUV
Chroma subsampling : 4:2:0
Bit depth : 8 bits
Scan type : Progressive
Bits/(Pixel*Frame) : 0.145
Stream size : 297 MiB (23%)
Writing library : Lavc51.40.4
Audio
ID : 1
Format : MPEG Audio
Format version : Version 1
Format profile : Layer 3
Mode : Joint stereo
Mode extension : MS Stereo
Codec ID : 55
Codec ID/Hint : MP3
Duration : 23mn 8s
Bit rate mode : Constant
Bit rate : 192 Kbps
Channel(s) : 2 channels
Sampling rate : 48.0 KHz
Stream size : 31.8 MiB (2%)
Alignment : Aligned on interleaves
Interleave, duration : 29 ms (0.86 video frame)

Screen : 
http://screencity.pl/uploaded/0c2dbaf7831c722e21336db3b8c8d020.jpg 
http://screencity.pl/uploaded/0c2dbaf7831c722e21336db3b8c8d020.jpg